<svg width="32" height="32" viewBox="0 0 32 32" fill="none" xmlns="http://www.w3.org/2000/svg">
<path d="M9.31888 18.5033L8.48348 21.622L5.4301 21.6866C4.51759 19.9941 4 18.0576 4 15.9998C4 14.01 4.48394 12.1335 5.34174 10.4812H5.3424L8.06076 10.9795L9.25157 13.6816C9.00234 14.4082 8.86649 15.1882 8.86649 15.9998C8.86659 16.8807 9.02615 17.7247 9.31888 18.5033Z" fill="#FBBB00"/>
<path d="M27.7908 13.7578C27.9286 14.4837 28.0004 15.2334 28.0004 15.9996C28.0004 16.8587 27.9101 17.6967 27.738 18.5051C27.1539 21.2558 25.6275 23.6578 23.513 25.3575L23.5124 25.3569L20.0885 25.1822L19.6039 22.1571C21.0069 21.3343 22.1034 20.0466 22.681 18.5051H16.2643V13.7578H22.7746H27.7908Z" fill="#518EF8"/>
<path d="M23.5114 25.3577L23.512 25.3584C21.4556 27.0113 18.8432 28.0003 15.9995 28.0003C11.4297 28.0003 7.45651 25.4461 5.42969 21.6872L9.31847 18.5039C10.3319 21.2085 12.9409 23.1338 15.9995 23.1338C17.3142 23.1338 18.5459 22.7784 19.6028 22.1579L23.5114 25.3577Z" fill="#28B446"/>
<path d="M23.6589 6.76261L19.7714 9.94522C18.6776 9.26151 17.3846 8.86654 15.9994 8.86654C12.8715 8.86654 10.2137 10.8801 9.25103 13.6817L5.34181 10.4813H5.34116C7.3383 6.63075 11.3616 4 15.9994 4C18.911 4 21.5806 5.03715 23.6589 6.76261Z" fill="#F14336"/>
</svg>
