<svg width="1107" height="1107" viewBox="0 0 1107 1107" fill="none" xmlns="http://www.w3.org/2000/svg">
<path d="M821.007 423.579C812.394 420.614 803.47 417.809 794.281 415.157C795.791 408.993 797.177 402.908 798.41 396.928C818.641 298.721 805.413 219.605 760.243 193.557C716.931 168.58 646.097 194.622 574.558 256.881C567.678 262.867 560.78 269.206 553.884 275.849C549.29 271.454 544.702 267.206 540.127 263.144C465.152 196.573 390.001 168.52 344.876 194.643C301.605 219.692 288.79 294.069 307.002 387.14C308.76 396.13 310.816 405.31 313.141 414.644C302.505 417.663 292.237 420.882 282.412 424.306C194.512 454.952 138.375 502.981 138.375 552.801C138.375 604.254 198.638 655.863 290.193 687.156C297.418 689.626 304.915 691.961 312.641 694.178C310.133 704.273 307.952 714.165 306.121 723.814C288.756 815.27 302.317 887.889 345.473 912.78C390.049 938.486 464.86 912.063 537.706 848.387C543.464 843.353 549.242 838.015 555.031 832.42C562.534 839.645 570.025 846.483 577.476 852.897C648.037 913.617 717.727 938.135 760.843 913.175C805.375 887.395 819.847 809.385 801.058 714.473C799.623 707.224 797.953 699.818 796.078 692.282C801.331 690.728 806.489 689.125 811.518 687.458C906.698 655.922 968.625 604.942 968.625 552.801C968.625 502.801 910.678 454.448 821.007 423.579ZM800.363 653.791C795.823 655.294 791.165 656.747 786.418 658.155C775.911 624.891 761.73 589.519 744.376 552.974C760.936 517.299 774.569 482.379 784.782 449.33C793.276 451.788 801.519 454.38 809.462 457.115C886.292 483.564 933.157 522.669 933.157 552.801C933.157 584.896 882.544 626.561 800.363 653.791ZM766.264 721.361C774.572 763.33 775.759 801.275 770.255 830.938C765.311 857.592 755.366 875.363 743.071 882.48C716.906 897.625 660.952 877.939 600.607 826.011C593.69 820.058 586.722 813.702 579.732 806.975C603.126 781.389 626.506 751.645 649.326 718.611C689.462 715.049 727.382 709.226 761.77 701.277C763.463 708.109 764.968 714.81 766.264 721.361ZM421.426 879.863C395.862 888.891 375.502 889.15 363.195 882.053C337.006 866.948 326.119 808.642 340.97 730.429C342.671 721.472 344.695 712.271 347.029 702.866C381.04 710.386 418.682 715.798 458.914 719.06C481.887 751.385 505.943 781.096 530.186 807.112C524.889 812.225 519.613 817.093 514.367 821.681C482.155 849.838 449.874 869.815 421.426 879.863ZM301.664 653.595C261.18 639.758 227.747 621.774 204.83 602.15C184.238 584.515 173.842 567.007 173.842 552.801C173.842 522.569 218.914 484.007 294.087 457.798C303.208 454.618 312.756 451.621 322.665 448.805C333.054 482.601 346.683 517.934 363.13 553.664C346.47 589.924 332.648 625.82 322.157 660.012C315.093 657.981 308.249 655.844 301.664 653.595ZM341.809 380.329C326.206 300.588 336.569 240.434 362.645 225.339C390.421 209.259 451.841 232.186 516.576 289.666C520.714 293.34 524.868 297.186 529.034 301.164C504.912 327.066 481.076 356.555 458.307 388.689C419.259 392.308 381.882 398.122 347.517 405.907C345.356 397.216 343.442 388.677 341.809 380.329ZM699.942 468.761C691.726 454.57 683.292 440.716 674.694 427.239C701.184 430.588 726.565 435.034 750.399 440.473C743.244 463.406 734.325 487.384 723.826 511.965C716.295 497.667 708.33 483.251 699.942 468.761ZM553.896 326.512C570.256 344.235 586.639 364.024 602.753 385.494C586.515 384.727 570.075 384.328 553.5 384.328C537.081 384.328 520.763 384.718 504.625 385.471C520.756 364.201 537.281 344.439 553.896 326.512ZM406.915 469.006C398.709 483.236 390.891 497.574 383.478 511.939C373.15 487.443 364.314 463.356 357.096 440.098C380.784 434.797 406.045 430.463 432.366 427.177C423.647 440.778 415.144 454.735 406.915 469.003V469.006ZM433.125 680.954C405.929 677.92 380.289 673.809 356.607 668.654C363.94 644.98 372.971 620.379 383.518 595.356C390.95 609.711 398.799 624.054 407.056 638.315H407.057C415.467 652.844 424.181 667.076 433.125 680.954ZM554.877 781.59C538.067 763.453 521.299 743.389 504.924 721.809C520.821 722.432 537.028 722.751 553.5 722.751C570.423 722.751 587.152 722.37 603.618 721.637C587.45 743.607 571.126 763.701 554.877 781.59ZM724.165 594.081C735.262 619.374 744.616 643.847 752.044 667.117C727.972 672.609 701.981 677.032 674.597 680.318C683.215 666.66 691.723 652.568 700.083 638.072C708.541 623.406 716.572 608.717 724.165 594.081ZM669.361 620.352C656.382 642.855 643.058 664.337 629.532 684.615C604.895 686.376 579.442 687.283 553.5 687.283C527.663 687.283 502.531 686.481 478.33 684.91C464.258 664.367 450.644 642.821 437.749 620.546H437.752C424.89 598.331 413.053 575.929 402.326 553.652C413.05 531.323 424.856 508.896 437.644 486.721L437.641 486.725C450.462 464.491 463.957 443.051 477.898 422.636C502.59 420.769 527.91 419.796 553.499 419.796H553.5C579.204 419.796 604.556 420.777 629.24 422.66C642.97 442.925 656.372 464.296 669.244 486.533C682.262 509.02 694.221 531.298 705.036 553.148C694.253 575.373 682.321 597.876 669.361 620.352ZM742.527 224.284C770.329 240.317 781.141 304.978 763.673 389.769C762.559 395.179 761.304 400.69 759.942 406.275C725.496 398.327 688.092 392.413 648.931 388.739C626.118 356.252 602.477 326.717 578.747 301.148C585.127 295.01 591.498 289.158 597.842 283.635C659.137 230.293 716.425 209.232 742.527 224.284ZM553.5 478.662C594.445 478.662 627.638 511.854 627.638 552.801C627.638 593.745 594.445 626.939 553.5 626.939C512.555 626.939 479.362 593.745 479.362 552.801C479.362 511.854 512.555 478.662 553.5 478.662Z" fill="#00D8FF"/>
</svg>
