<svg width="1107" height="1107" viewBox="0 0 1107 1107" fill="none" xmlns="http://www.w3.org/2000/svg">
<path d="M264.674 255.519C428.71 96.6087 690.997 100.881 849.907 265.771C867.849 241.849 883.227 215.364 894.334 188.025C946.449 346.935 978.06 480.214 966.099 583.591C960.119 670.735 925.945 754.461 869.557 821.101C722.608 995.389 461.176 1017.6 286.888 870.654L283.553 867.687L283.376 867.57C282.83 867.191 282.292 866.794 281.762 866.382C280.171 865.145 278.726 863.797 277.428 862.36L276.96 861.827L271.509 856.984C266.193 852.427 260.877 847.871 256.161 842.714L254.422 840.751C95.5123 676.715 100.638 414.428 264.674 255.519ZM326.188 811.703C310.81 799.742 288.596 801.451 276.635 816.829C266.118 830.352 266.17 849.159 276.791 861.633L276.96 861.827L283.553 867.687L284.2 868.128C299.134 877.948 319.226 875.918 330.686 862.039L331.314 861.256C343.275 845.877 340.712 823.664 326.188 811.703ZM890.062 230.742C847.344 320.45 741.404 388.798 649.988 410.157C563.698 430.661 488.515 413.574 409.06 444.331C227.937 513.534 231.355 728.831 330.46 777.529L336.44 780.946C336.44 780.946 408.027 766.713 478.818 747.916L484.882 746.294C513.156 738.674 540.973 730.369 563.698 721.996C681.599 678.424 811.461 570.775 854.179 446.04C831.966 575.901 720.045 701.492 608.125 758.733C548.32 789.49 502.185 796.325 403.934 830.499C391.973 834.771 382.575 839.043 382.575 839.043C383.774 838.877 384.973 838.716 386.169 838.558L388.557 838.249L390.932 837.95C412.63 835.261 432.128 833.916 432.128 833.916C571.388 827.082 790.102 873.217 891.77 737.374C996.002 598.969 937.906 375.128 890.062 230.742Z" fill="#6DB33F"/>
<path d="M326.196 811.694C340.72 823.655 343.283 845.868 331.322 861.246C319.361 876.625 297.148 878.333 281.77 866.372C266.391 854.411 264.683 832.198 276.644 816.82C288.605 801.441 310.818 799.733 326.196 811.694ZM890.07 230.733C937.914 375.119 996.01 598.96 891.779 737.365C790.11 873.207 571.396 827.072 432.136 833.907C432.136 833.907 412.639 835.252 390.94 837.941L388.565 838.24C386.58 838.493 384.582 838.758 382.583 839.033C382.583 839.033 391.981 834.761 403.942 830.49C502.193 796.315 548.328 789.481 608.133 758.724C720.053 701.482 831.974 575.892 854.187 446.03C811.469 570.766 681.607 678.415 563.707 721.987C482.543 751.889 336.448 780.937 336.448 780.937L330.468 777.52C231.363 728.821 227.945 513.524 409.068 444.321C488.523 413.565 563.707 430.652 649.996 410.147C741.412 388.788 847.352 320.44 890.07 230.733Z" fill="white"/>
</svg>
